# xmcd
# 
# Track frame offsets:
#     150
#     10331
#     26691
#     42789
#     55077
#     67678
#     78695
#     97241
#     112202
#     128956
#     149912
#     165293
#     183794
#     197554
#     214827
#     229341
# 
# Disc length: 3260
# 
# Revision: 6
# Processed by: cddbd v1.5.2PL0 Copyright (c) Steve Scherf et al.
# Submitted via: fre:ac v1.0.31
# 
DISCID=e40cba10
DTITLE=George Jones - 50 Years Of Hits Disc 3
DYEAR=2004
DGENRE=Country
TTITLE0=I'm A One Woman Man
TTITLE1=A Few Ole Country Boys (With Randy Travis)
TTITLE2=You Couldn't Get The Picture
TTITLE3=Finally Friday
TTITLE4=I Don't Need Your Rockin' Chair
TTITLE5=High-Tech Redneck
TTITLE6=One (With Tammy Wynette
TTITLE7=I Must Have Done Something Bad
TTITLE8=When Did You Stop Loving Me
TTITLE9=Wild Irish Rose
TTITLE10=Choices
TTITLE11=The Cold Hard Truth
TTITLE12=Beer Run (B Double E Double Are You In?)(With Garth Brooks)
TTITLE13=50,000 Names
TTITLE14=I Got Everything
TTITLE15=Amazing Grace
EXTD=
EXTT0=
EXTT1=
EXTT2=
EXTT3=
EXTT4=
EXTT5=
EXTT6=
EXTT7=
EXTT8=
EXTT9=
EXTT10=
EXTT11=
EXTT12=
EXTT13=
EXTT14=
EXTT15=
PLAYORDER=
